# xmcd
# 
# Track frame offsets:
#     182
#     16750
#     28270
#     45397
#     61005
#     80117
#     95695
#     108492
#     122455
#     136192
#     148887
# 
# Disc length: 2147
# 
# Revision: 5
# Processed by: cddbd v1.5.2PL0 Copyright (c) Steve Scherf et al.
# Submitted via: fre:ac v1.0.31
# 
DISCID=8f08610b
DTITLE=Carly Simon - Torch
DYEAR=1981
DGENRE=Vocal
TTITLE0=Blue Of Blue
TTITLE1=I'll Be Around
TTITLE2=I Got It Bad And That Ain't Good
TTITLE3=I Get Along Without You Very Well
TTITLE4=Body And Soul
TTITLE5=Hurt
TTITLE6=From The Heart
TTITLE7=Spring Is Here
TTITLE8=Pretty Strange
TTITLE9=What Shall We Do With The Child
TTITLE10=Not A Day Goes By
EXTD=YEAR: 1981
EXTT0=
EXTT1=
EXTT2=
EXTT3=
EXTT4=
EXTT5=
EXTT6=
EXTT7=
EXTT8=
EXTT9=
EXTT10=
PLAYORDER=
